<mxfile host="app.diagrams.net" modified="2022-07-28T09:35:42.496Z" agent="5.0 (Windows NT 10.0; Win64; x64) AppleWebKit/537.36 (KHTML, like Gecko) Chrome/103.0.5060.134 Safari/537.36 Edg/103.0.1264.71" etag="1j-Sti4c9tGfG1Kh62Jy" version="20.1.1" type="github">
  <diagram id="yT1SfIcuyEqLIlFp-2z3" name="第 1 页">
    <mxGraphModel dx="2014" dy="1154" grid="1" gridSize="10" guides="1" tooltips="1" connect="1" arrows="1" fold="1" page="1" pageScale="1" pageWidth="900" pageHeight="1600" math="0" shadow="0">
      <root>
        <mxCell id="0" />
        <mxCell id="1" parent="0" />
        <mxCell id="0vMOG5RNOarhQ94LOpEG-8" value="" style="rounded=0;whiteSpace=wrap;html=1;" vertex="1" parent="1">
          <mxGeometry x="740" y="290" width="220" height="650" as="geometry" />
        </mxCell>
        <mxCell id="0vMOG5RNOarhQ94LOpEG-7" value="" style="rounded=0;whiteSpace=wrap;html=1;" vertex="1" parent="1">
          <mxGeometry x="420" y="290" width="230" height="650" as="geometry" />
        </mxCell>
        <mxCell id="0vMOG5RNOarhQ94LOpEG-5" value="" style="rounded=0;whiteSpace=wrap;html=1;" vertex="1" parent="1">
          <mxGeometry x="100" y="290" width="230" height="650" as="geometry" />
        </mxCell>
        <mxCell id="0vMOG5RNOarhQ94LOpEG-14" style="edgeStyle=orthogonalEdgeStyle;rounded=0;orthogonalLoop=1;jettySize=auto;html=1;exitX=1;exitY=0.5;exitDx=0;exitDy=0;entryX=0;entryY=0.5;entryDx=0;entryDy=0;" edge="1" parent="1" source="0vMOG5RNOarhQ94LOpEG-1" target="0vMOG5RNOarhQ94LOpEG-13">
          <mxGeometry relative="1" as="geometry" />
        </mxCell>
        <mxCell id="0vMOG5RNOarhQ94LOpEG-1" value="创建支付订单" style="rounded=1;whiteSpace=wrap;html=1;" vertex="1" parent="1">
          <mxGeometry x="470" y="330" width="120" height="60" as="geometry" />
        </mxCell>
        <mxCell id="0vMOG5RNOarhQ94LOpEG-4" value="Actor" style="shape=umlActor;verticalLabelPosition=bottom;verticalAlign=top;html=1;outlineConnect=0;" vertex="1" parent="1">
          <mxGeometry x="170" y="190" width="30" height="60" as="geometry" />
        </mxCell>
        <mxCell id="0vMOG5RNOarhQ94LOpEG-9" value="e站" style="text;html=1;strokeColor=none;fillColor=none;align=center;verticalAlign=middle;whiteSpace=wrap;rounded=0;" vertex="1" parent="1">
          <mxGeometry x="490" y="230" width="60" height="30" as="geometry" />
        </mxCell>
        <mxCell id="0vMOG5RNOarhQ94LOpEG-10" value="支付项目" style="text;html=1;strokeColor=none;fillColor=none;align=center;verticalAlign=middle;whiteSpace=wrap;rounded=0;" vertex="1" parent="1">
          <mxGeometry x="820" y="230" width="60" height="30" as="geometry" />
        </mxCell>
        <mxCell id="0vMOG5RNOarhQ94LOpEG-12" style="edgeStyle=orthogonalEdgeStyle;rounded=0;orthogonalLoop=1;jettySize=auto;html=1;exitX=1;exitY=0.5;exitDx=0;exitDy=0;" edge="1" parent="1" source="0vMOG5RNOarhQ94LOpEG-11" target="0vMOG5RNOarhQ94LOpEG-1">
          <mxGeometry relative="1" as="geometry" />
        </mxCell>
        <mxCell id="0vMOG5RNOarhQ94LOpEG-11" value="购买商品" style="whiteSpace=wrap;html=1;rounded=1;" vertex="1" parent="1">
          <mxGeometry x="150" y="330" width="120" height="60" as="geometry" />
        </mxCell>
        <mxCell id="0vMOG5RNOarhQ94LOpEG-16" value="" style="edgeStyle=orthogonalEdgeStyle;rounded=0;orthogonalLoop=1;jettySize=auto;html=1;" edge="1" parent="1" source="0vMOG5RNOarhQ94LOpEG-13" target="0vMOG5RNOarhQ94LOpEG-15">
          <mxGeometry relative="1" as="geometry" />
        </mxCell>
        <mxCell id="0vMOG5RNOarhQ94LOpEG-13" value="查询支付状态" style="rounded=1;whiteSpace=wrap;html=1;" vertex="1" parent="1">
          <mxGeometry x="790" y="330" width="120" height="60" as="geometry" />
        </mxCell>
        <mxCell id="0vMOG5RNOarhQ94LOpEG-18" value="" style="edgeStyle=orthogonalEdgeStyle;rounded=0;orthogonalLoop=1;jettySize=auto;html=1;" edge="1" parent="1" source="0vMOG5RNOarhQ94LOpEG-15" target="0vMOG5RNOarhQ94LOpEG-17">
          <mxGeometry relative="1" as="geometry" />
        </mxCell>
        <mxCell id="0vMOG5RNOarhQ94LOpEG-15" value="成功" style="rhombus;whiteSpace=wrap;html=1;rounded=1;" vertex="1" parent="1">
          <mxGeometry x="810" y="440" width="80" height="80" as="geometry" />
        </mxCell>
        <mxCell id="0vMOG5RNOarhQ94LOpEG-20" value="" style="edgeStyle=orthogonalEdgeStyle;rounded=0;orthogonalLoop=1;jettySize=auto;html=1;" edge="1" parent="1" source="0vMOG5RNOarhQ94LOpEG-17" target="0vMOG5RNOarhQ94LOpEG-19">
          <mxGeometry relative="1" as="geometry" />
        </mxCell>
        <mxCell id="0vMOG5RNOarhQ94LOpEG-17" value="接收支付回调" style="whiteSpace=wrap;html=1;rounded=1;" vertex="1" parent="1">
          <mxGeometry x="470" y="450" width="120" height="60" as="geometry" />
        </mxCell>
        <mxCell id="0vMOG5RNOarhQ94LOpEG-22" value="" style="edgeStyle=orthogonalEdgeStyle;rounded=0;orthogonalLoop=1;jettySize=auto;html=1;" edge="1" parent="1" source="0vMOG5RNOarhQ94LOpEG-19" target="0vMOG5RNOarhQ94LOpEG-21">
          <mxGeometry relative="1" as="geometry" />
        </mxCell>
        <mxCell id="0vMOG5RNOarhQ94LOpEG-19" value="按商品类型处理" style="whiteSpace=wrap;html=1;rounded=1;" vertex="1" parent="1">
          <mxGeometry x="470" y="590" width="120" height="60" as="geometry" />
        </mxCell>
        <mxCell id="0vMOG5RNOarhQ94LOpEG-21" value="" style="whiteSpace=wrap;html=1;rounded=1;" vertex="1" parent="1">
          <mxGeometry x="470" y="730" width="120" height="60" as="geometry" />
        </mxCell>
      </root>
    </mxGraphModel>
  </diagram>
</mxfile>
